<svg width="30" height="30" viewBox="0 0 30 30" fill="none" xmlns="http://www.w3.org/2000/svg">
<path d="M26.4561 23.6312L26.4588 23.6556L26.4638 23.6795C26.4871 23.7895 26.5 23.8953 26.5 24C26.5 24.8289 25.8289 25.5 25 25.5H15H5C4.17114 25.5 3.5 24.8289 3.5 24C3.5 23.8953 3.51288 23.7895 3.53616 23.6795L3.54124 23.6556L3.54394 23.6312L5.49694 6.05522L5.5 6.02769V6C5.5 5.17114 6.17114 4.5 7 4.5H15H23C23.8289 4.5 24.5 5.17114 24.5 6V6.02769L24.5031 6.05522L26.4561 23.6312ZM20.5 10V9.22561C21.0947 8.88209 21.5 8.24198 21.5 7.5C21.5 6.39586 20.6041 5.5 19.5 5.5C18.3959 5.5 17.5 6.39586 17.5 7.5V10C17.5 11.3779 16.3779 12.5 15 12.5C13.6221 12.5 12.5 11.3779 12.5 10V7.5C12.5 6.39586 11.6041 5.5 10.5 5.5C9.39586 5.5 8.5 6.39586 8.5 7.5C8.5 8.24198 8.90531 8.88209 9.5 9.22561V10C9.5 13.0331 11.9669 15.5 15 15.5C18.0331 15.5 20.5 13.0331 20.5 10Z" stroke="#9B9B9B"/>
<circle cx="25" cy="5" r="3" fill="#DB3022"/>
</svg>
