<svg width="168" height="454" viewBox="0 0 168 454" fill="none" xmlns="http://www.w3.org/2000/svg">
<g clip-path="url(#clip0)">
<path d="M35.4758 220.386C45.398 219.027 52.9504 176.628 43.0281 170.827C37.4101 167.475 24.7646 175.269 20.4637 186.321C13.9643 202.81 28.5408 221.292 35.4758 220.386ZM136.626 424.424C127.229 438.828 108.351 441.999 70.5107 448.433C36.6179 454.23 19.4965 455.95 10.5414 445.623C3.07829 437.016 5.09841 414.458 9.22441 369.157C10.0133 360.818 10.3665 356.561 10.8913 353.935C17.0374 326.482 32.4027 330.467 46.6293 295.224C56.2875 271.395 56.0234 252.822 66.4705 250.376C69.1045 249.743 71.1246 250.468 73.3197 251.643C85.1729 207.974 95.0952 164.938 93.1642 119.276C93.0751 117.825 95.3593 117.552 95.6199 118.911C103.786 164.032 90.2661 210.784 78.4986 253.908C78.4129 254.092 78.4129 254.273 78.3237 254.361C80.6079 255.54 83.4169 256.538 87.1039 256.899C104.839 258.438 115.639 242.042 120.643 245.666C126.79 250.015 116.607 265.779 115.993 289.608C115.29 317.602 127.493 322.858 137.151 361.183C142.155 381.296 148.479 406.303 136.626 424.424Z" fill="#A5E4D9"/>
<path d="M67.7875 98.7986C59.9745 91.0089 59.0073 80.1367 58.0435 69.0804C57.5153 63.4638 56.8122 55.4017 57.6903 47.428C57.8652 47.7005 58.2184 47.881 58.6574 47.881C60.7633 48.0615 62.6085 49.0595 64.4503 50.054C65.3283 50.5991 66.5596 50.6911 67.4376 50.054C67.5234 49.9656 67.6125 49.9656 67.7017 49.8735C68.7546 49.148 69.1045 48.1535 68.8404 46.883C68.8404 46.7945 68.8404 46.614 68.7546 46.522C68.5797 45.5239 67.6125 44.6179 66.6453 44.349C63.7506 43.6234 60.9382 44.0764 58.2184 45.163C58.1293 45.255 57.9543 45.255 57.8652 45.3435C58.9215 38.0953 61.3772 31.2117 66.6453 26.6816C69.6327 24.144 72.0918 23.0575 75.4255 20.4279C77.5348 18.7079 79.7299 17.5294 81.311 14.9033C82.5388 12.8188 82.4497 11.7323 83.1528 10.1007C85.7868 3.3056 95.0952 2.03505 94.9203 0.948531C94.6562 -0.045966 82.4497 -1.76952 71.9135 5.11763C60.4992 12.5463 56.1983 26.5896 53.7392 35.2888C48.207 55.2212 51.1051 63.1913 49.3491 95.6275C48.1212 117.736 45.3123 140.295 47.154 140.656C48.9993 140.928 49.963 118.55 63.3974 112.116C69.4577 109.218 76.0429 110.669 76.6568 107.951C77.3599 105.413 72.0918 103.056 67.7875 98.7986ZM162.438 216.854C150.057 235.154 115.2 240.771 100.274 226.82C76.1286 204.169 100.888 126.705 106.42 112.028C106.595 111.575 110.81 100.338 112.566 84.8473C114.237 69.445 111.952 63.2833 111.164 61.3793C108.091 54.1311 104.753 54.3152 97.2902 45.255C97.0261 45.5239 96.6763 45.616 96.2373 45.5239C93.1642 44.5294 90.5302 43.0784 87.193 43.5314C84.0308 43.9844 81.8357 46.7025 78.5878 46.522C76.5676 46.3415 75.2506 43.8039 76.8317 42.2644C79.9048 39.1818 87.8961 38.0953 93.1642 40.1799C87.8069 33.1122 82.189 23.9635 84.6447 15.1723C86.4899 8.74171 91.9329 5.39015 92.9859 4.7531C100.449 0.407044 108.704 3.1251 114.676 5.11763C114.676 5.11763 125.473 8.74171 133.464 16.2624C155.942 37.6423 153.922 100.158 165.601 179.526C167.617 192.752 169.902 205.889 162.438 216.854Z" fill="black"/>
<path d="M136.361 234.793C133.199 248.564 133.024 263.421 131.357 277.465C129.601 292.234 127.756 306.457 123.277 320.685C122.927 321.86 124.683 322.677 125.297 321.591C131.618 309.267 132.935 294.499 134.869 280.908C136.975 266.051 140.576 250.468 140.662 235.519C140.576 232.889 136.886 232.348 136.361 234.793ZM50.6653 264.327C48.7343 266.412 47.6814 269.495 46.2752 272.029C44.7833 274.839 43.0272 277.465 41.3604 280.183C40.6573 281.273 42.2384 282.448 43.1164 281.542C45.3972 279.188 47.4173 276.559 49.2625 273.841C50.9294 271.307 52.8603 268.497 53.2136 265.418C53.3885 264.059 51.4576 263.421 50.6653 264.327ZM15.7195 346.322C12.7356 353.209 10.5406 360.096 9.13438 367.433C8.52045 370.424 7.81735 373.414 7.20343 376.585C6.93934 374.501 6.76442 372.328 6.67867 370.243C6.32541 363.99 6.15049 357.647 6.23967 351.397C6.32541 348.226 6.5895 344.963 6.67867 341.792C6.76442 341.612 6.76442 341.431 6.76442 341.159C7.2926 316.877 17.5647 294.952 25.3777 272.574C33.2799 249.831 37.1452 226.094 40.6573 202.177C44.0802 178.528 46.8034 153.977 54.4414 131.327C56.7257 124.712 59.9736 117.736 66.3839 114.381C72.7049 111.03 78.9368 113.475 84.9971 116.105C91.8464 119.096 98.1674 122.355 105.716 120.182C106.948 119.817 106.419 118.005 105.192 118.278C94.3021 120.182 85.9609 110.396 75.5139 109.037C67.5225 107.951 60.5876 112.208 55.9334 118.731C49.1733 128.244 46.8034 141.381 44.2551 152.707C41.3604 166.024 39.2511 179.526 37.3201 193.025C33.5439 219.027 29.857 245.121 21.3409 270.036C14.1418 290.875 4.83347 311.26 2.63842 333.369C0.70747 339.439 1.14648 346.414 1.23565 352.756C1.3214 359.459 1.67466 366.255 2.37433 372.961C3.60561 384.92 5.1833 398.149 10.1016 409.11C10.3657 409.743 11.3294 409.382 11.3294 408.749C10.9796 402.86 10.1907 396.971 9.31273 391.082C9.31273 390.99 9.39847 390.99 9.39847 390.901C11.8576 385.012 12.1217 378.217 12.9997 371.963C14.0526 363.629 15.1056 355.202 17.5647 347.14C17.8288 346.053 16.1585 345.328 15.7195 346.322ZM78.6761 88.6519C77.7089 89.1969 77.3591 90.2834 76.3919 90.9169C75.6888 91.4619 75.603 92.9094 76.656 93.0899C77.6197 93.274 78.3228 93.274 79.2009 92.9094C80.168 92.4564 81.0461 91.8229 81.3102 90.7364C81.66 89.1049 79.9931 87.8379 78.6761 88.6519ZM71.0346 86.2948C70.4207 86.0258 69.6318 86.4788 69.8959 87.2008C72.1767 94.449 83.5909 85.5728 82.7129 80.2252C82.538 78.9582 80.8711 78.6857 80.0789 79.4997C78.6761 80.8587 78.2371 82.9432 77.0058 84.3943C75.339 86.3868 73.408 87.4733 71.0346 86.2948ZM80.782 56.8492C82.0098 56.2157 83.3269 55.8547 84.733 55.5822C84.9971 57.1217 87.103 58.0277 88.595 57.9393C88.9482 57.9393 89.2981 57.8472 89.6513 57.6667C90.1761 57.5747 90.7043 57.3022 91.0541 56.8492C91.668 56.3077 92.1962 55.6742 92.2854 55.0372C94.0414 54.9487 95.8832 54.7682 97.6392 54.3152C99.0454 53.9506 98.6922 51.7776 97.2894 51.7776C91.3182 51.5971 84.9971 52.0501 80.343 56.2157C79.904 56.5802 80.4321 57.0332 80.782 56.8492ZM124.244 235.788C124.333 234.613 122.663 234.521 122.313 235.519C121.171 239.143 119.854 242.767 118.273 246.207C117.131 248.656 115.374 251.102 114.496 253.639C98.8705 256.718 83.9442 254.453 68.8396 249.923C76.4811 221.656 83.7659 192.844 87.981 163.851C88.42 161.041 84.469 159.774 83.7659 162.673C75.778 194.748 69.7176 227.365 61.4656 259.436C57.5145 274.931 53.9133 289.88 44.7833 303.106C35.5641 316.516 25.4669 329.38 15.8979 342.518C15.5446 343.063 16.3369 343.696 16.7759 343.151C26.9588 330.92 37.4093 318.873 46.9783 306.096C56.4616 293.412 60.6767 279.822 64.8027 264.6C65.9448 260.523 66.9978 256.538 68.1399 252.461C82.8021 261.068 100.537 262.246 116.87 258.803C118.626 258.438 119.065 256.81 118.626 255.451C120.382 253.094 121.346 249.831 122.224 247.205C123.455 243.489 124.069 239.776 124.244 235.788ZM69.8959 76.6931C70.5956 77.2346 71.2987 76.1481 70.7739 75.5146C66.7337 70.804 73.0547 66.0014 74.1077 61.3793C75.164 57.1217 75.6888 51.7776 74.8108 47.52C74.4609 45.616 72.0018 45.977 71.4736 47.52C70.3349 50.6911 70.5099 54.1311 70.2458 57.4862C69.8959 61.5633 68.1399 63.5559 66.9978 67.0879C65.8557 70.5315 67.1727 74.6086 69.8959 76.6931ZM67.8758 101.789C52.0715 81.5842 53.3885 49.0596 63.7498 26.5896C64.0996 25.8641 65.2418 26.4091 64.9777 27.1346C62.5185 35.3773 60.4984 44.349 59.6204 53.3171C60.6767 53.3171 61.8154 53.4976 62.8718 53.5897C63.5715 53.6781 64.2746 53.8622 64.8885 53.9506C65.1526 53.9506 65.5058 54.0427 65.7665 54.2232C66.9978 54.5842 68.2256 55.0372 69.4569 55.5822C70.0708 55.8547 69.6318 56.8492 69.0179 56.6687C68.9287 56.6687 68.7538 56.6687 68.6646 56.5802C68.5789 56.7607 68.4897 56.8492 68.4006 57.0332C67.4368 58.0277 66.3839 58.8453 64.8885 58.3923C63.8355 58.1197 62.9575 57.1217 62.8718 56.0352C62.7826 56.0352 62.6934 56.0352 62.6077 56.0352C61.5548 56.0352 60.4984 56.3077 59.4455 56.3962C58.5674 69.806 60.3235 83.3078 67.2619 94.8135C71.213 101.428 75.9529 106.139 83.855 104.599C88.2451 103.693 92.4603 101.428 96.2365 98.9791C100.887 95.9 104.927 92.0034 109.492 88.8324C109.667 88.7439 109.846 88.6519 110.021 88.6519C109.757 76.6011 108.44 64.8229 101.24 54.6762C97.3751 49.2401 95.1801 44.6179 93.6881 38.0953C91.7572 30.0332 88.9482 19.5219 78.851 20.067C77.8838 20.1554 77.7089 18.6159 78.5869 18.3434C95.4442 14.1778 95.5333 38.5483 101.505 48.0615C105.895 55.2212 110.285 60.6573 112.216 69.1725C114.057 77.1461 114.147 85.4808 114.236 93.635C114.236 96.445 110.106 96.445 110.021 93.635C110.021 93.3625 110.021 93.0899 110.021 92.821C100.448 104.688 78.851 115.74 67.8758 101.789Z" fill="black"/>
<path d="M96.7731 68.4044C96.7731 73.3972 92.8547 77.4176 88.0539 77.4176C83.2531 77.4176 79.3347 73.3972 79.3347 68.4044C79.3347 63.4117 83.2531 59.3912 88.0539 59.3912C92.8547 59.3912 96.7731 63.4117 96.7731 68.4044Z" fill="black" stroke="black"/>
<path d="M64.2865 71.1225C64.2865 76.1152 60.3681 80.1357 55.5673 80.1357C50.7665 80.1357 46.8481 76.1152 46.8481 71.1225C46.8481 66.1297 50.7665 62.1093 55.5673 62.1093C60.3681 62.1093 64.2865 66.1297 64.2865 71.1225Z" fill="black" stroke="black"/>
</g>
<defs>
<clipPath id="clip0">
<rect width="166.911" height="453.1" fill="white" transform="translate(0.691162)"/>
</clipPath>
</defs>
</svg>
