<svg width="30" height="30" viewBox="0 0 30 30" fill="none" xmlns="http://www.w3.org/2000/svg">
<path fill-rule="evenodd" clip-rule="evenodd" d="M24.9484 5.01011C22.3172 2.37579 18.8178 0.924397 15.0899 0.922852C7.40803 0.922852 1.15612 7.17459 1.15303 14.8585C1.152 17.3148 1.79367 19.7126 3.01333 21.8261L1.03613 29.0478L8.42427 27.1098C10.46 28.2203 12.7518 28.8055 15.0842 28.8061H15.09C22.771 28.8061 29.0236 22.5539 29.0265 14.8696C29.0281 11.1456 27.5798 7.64425 24.9484 5.01011ZM15.0899 26.4525H15.0851C13.0066 26.4516 10.9681 25.8931 9.18936 24.8379L8.76656 24.5867L4.38233 25.7368L5.55254 21.4623L5.27703 21.0241C4.11745 19.1797 3.50514 17.048 3.50617 14.8593C3.50857 8.47269 8.7051 3.27667 15.0945 3.27667C18.1885 3.2777 21.097 4.48414 23.284 6.67368C25.4709 8.86322 26.6746 11.7736 26.6736 14.8688C26.6708 21.256 21.4746 26.4525 15.0899 26.4525V26.4525ZM21.4437 17.7769C21.0956 17.6025 19.3835 16.7603 19.0642 16.6439C18.7452 16.5277 18.5128 16.4699 18.2809 16.8183C18.0486 17.1668 17.3814 17.9513 17.1781 18.1836C16.9749 18.416 16.772 18.4452 16.4237 18.2708C16.0754 18.0965 14.9534 17.7287 13.6232 16.5423C12.5881 15.619 11.8892 14.4786 11.686 14.1301C11.4831 13.7813 11.6843 13.611 11.8388 13.4195C12.2157 12.9513 12.5932 12.4606 12.7093 12.2283C12.8255 11.9959 12.7673 11.7924 12.6801 11.6182C12.5932 11.444 11.8968 9.72994 11.6067 9.03248C11.3238 8.35373 11.037 8.4454 10.8231 8.43475C10.6202 8.42462 10.3879 8.42256 10.1556 8.42256C9.92356 8.42256 9.54624 8.5096 9.22695 8.85841C8.90784 9.20706 8.00833 10.0494 8.00833 11.7634C8.00833 13.4775 9.25614 15.1333 9.4302 15.3658C9.60427 15.5982 11.8858 19.1155 15.379 20.6237C16.2098 20.9829 16.8583 21.1969 17.3642 21.3574C18.1985 21.6225 18.9574 21.585 19.5575 21.4954C20.2267 21.3954 21.6176 20.6529 21.9081 19.8396C22.1982 19.0261 22.1982 18.329 22.111 18.1836C22.0241 18.0383 21.7919 17.9513 21.4437 17.7769V17.7769Z" fill="black"/>
</svg>
